<svg width="80" height="80" viewBox="0 0 80 80" fill="none" xmlns="http://www.w3.org/2000/svg">
<circle cx="40" cy="40" r="39" stroke="#6E7782" stroke-width="2"/>
<path d="M47 30H33C31.89 30 31 30.9 31 32V46C31 47.1 31.89 48 33 48H37L40 51L43 48H47C48.1 48 49 47.1 49 46V32C49 30.9 48.1 30 47 30ZM47 46H42.17L41.58 46.59L40 48.17L38.41 46.58L37.83 46H33V32H47V46ZM39 43H41V45H39V43ZM40 35C41.1 35 42 35.9 42 37C42 39 39 38.75 39 42H41C41 39.75 44 39.5 44 37C44 34.79 42.21 33 40 33C37.79 33 36 34.79 36 37H38C38 35.9 38.9 35 40 35Z" fill="#6E7782"/>
</svg>
