<svg width="446" height="635" viewBox="0 0 446 635" fill="none" xmlns="http://www.w3.org/2000/svg">
<path d="M0.69 547.51H0V26.46L0.1 26.36L18.18 8.28003H157.5V8.97003H18.46L0.69 26.74V547.51Z" fill="#0EB7FF"/>
<path d="M4.22003 547.51H3.53003V27.9201L3.64003 27.8201L19.64 11.8201H144.78V12.5101H19.92L4.22003 28.2101V547.51Z" fill="#0EB7FF"/>
<path d="M2.46002 547.51H1.77002V27.19L1.87002 27.09L18.91 10.05H151.61V10.74H19.19L2.46002 27.47V547.51Z" fill="#0EB7FF"/>
<path d="M445.05 547.51H444.37V26.74L426.59 8.97003H287.55V8.28003H426.88L426.98 8.38003L445.05 26.46V547.51Z" fill="#0EB7FF"/>
<path d="M441.52 547.51H440.83V28.2101L425.13 12.5101H300.28V11.8201H425.42L425.52 11.9201L441.52 27.9201V547.51Z" fill="#0EB7FF"/>
<path d="M443.29 547.51H442.6V27.47L425.86 10.74H293.45V10.05H426.15L426.25 10.15L443.29 27.19V547.51Z" fill="#0EB7FF"/>
<path d="M272.09 8.96999H172.97C172.97 7.01999 174.55 5.43999 176.51 5.43999H268.56C270.51 5.42999 272.09 7.00999 272.09 8.96999Z" fill="#0EB7FF"/>
<path d="M251.98 3.54H193.07C193.07 1.59 194.01 0 195.17 0H249.87C251.04 0 251.98 1.58 251.98 3.54Z" fill="#0EB7FF"/>
<path d="M157.5 634.46H18.18L18.07 634.36L0 616.28V547.51H0.69V616L18.46 633.77H157.5V634.46Z" fill="#0EB7FF"/>
<path d="M144.78 630.92H19.64L19.54 630.82L3.53003 614.82V547.51H4.22003V614.53L19.92 630.23H144.78V630.92Z" fill="#0EB7FF"/>
<path d="M151.61 632.69H18.91L18.81 632.59L1.77002 615.55V547.51H2.46002V615.26L19.19 632H151.61V632.69Z" fill="#0EB7FF"/>
<path d="M426.88 634.46H287.55V633.77H426.59L444.37 616V547.51H445.05V616.28L444.95 616.38L426.88 634.46Z" fill="#0EB7FF"/>
<path d="M425.42 630.92H300.28V630.23H425.13L440.83 614.53V547.51H441.52V614.82L441.42 614.92L425.42 630.92Z" fill="#0EB7FF"/>
<path d="M426.15 632.69H293.45V632H425.86L442.6 615.26V547.51H443.29V615.55L443.19 615.65L426.15 632.69Z" fill="#0EB7FF"/>
<path d="M272.09 630.58H172.97C172.97 632.53 174.55 634.11 176.51 634.11H268.56C270.51 634.11 272.09 632.53 272.09 630.58Z" fill="#0EB7FF"/>
<path d="M161.38 633.82L153.46 625.9H20.0801V624.52H154.03L162.36 632.85L161.38 633.82Z" fill="#0EB7FF"/>
<path d="M282.82 633.82L281.84 632.85L290.17 624.52H424.12V625.9H290.74L282.82 633.82Z" fill="#0EB7FF"/>
<path d="M155.37 623.17L154.64 622.43L170.24 606.84H213.11V607.87H170.67L155.37 623.17Z" fill="#0EB7FF"/>
<path d="M287.19 623.17L271.9 607.87H229.45V606.84H272.32L272.48 606.99L287.92 622.43L287.19 623.17Z" fill="#0EB7FF"/>
<path d="M218.45 607.79C218.45 606.32 219.65 605.12 221.12 605.12C222.59 605.12 223.79 606.32 223.79 607.79C223.79 609.26 222.59 610.46 221.12 610.46C219.65 610.46 218.45 609.26 218.45 607.79Z" fill="#0EB7FF"/>
<path d="M177.51 629.08H163.55L157.91 623.45L164.9 616.46L177.51 629.08Z" fill="#0EB7FF"/>
<path d="M193.92 629.08H179.96L166.12 615.25L171.91 609.45H174.28L193.92 629.08Z" fill="#0EB7FF"/>
<path opacity="0.68" d="M210.32 629.08H196.37L176.72 609.45H190.69L210.32 629.08Z" fill="#0EB7FF"/>
<path opacity="0.68" d="M213.11 615.47V629.08H212.77L193.13 609.45H207.09L213.11 615.47Z" fill="#0EB7FF"/>
<path d="M265.06 629.08H279.02L284.65 623.45L277.67 616.46L265.06 629.08Z" fill="#0EB7FF"/>
<path d="M248.65 629.08H262.6L276.44 615.25L270.65 609.45H268.28L248.65 629.08Z" fill="#0EB7FF"/>
<path d="M232.25 629.08H246.19L265.84 609.45H251.87L232.25 629.08Z" fill="#0EB7FF"/>
<path opacity="0.68" d="M229.45 615.47V629.08H229.79L249.43 609.45H235.47L229.45 615.47Z" fill="#0EB7FF"/>
<path opacity="0.68" d="M228.5 615.39H214.03V629.08H228.5V615.39Z" fill="#0EB7FF"/>
<path d="M54.8201 622.78H20.0801V625.97H54.8201V622.78Z" fill="#0EB7FF"/>
<path d="M424.62 622.78H389.88V625.97H424.62V622.78Z" fill="#0EB7FF"/>
<path d="M437.36 31.6699H436.67V610.46H437.36V31.6699Z" fill="#0EB7FF"/>
<path d="M437.38 49.5798H435.49V75.0698H437.38V49.5798Z" fill="#0EB7FF"/>
<path d="M434.37 49.5798H432.88V60.1398H434.37V49.5798Z" fill="#0EB7FF"/>
<path d="M435.87 609.25C435.87 609.9 435.34 610.43 434.69 610.43C434.04 610.43 433.51 609.9 433.51 609.25C433.51 608.6 434.04 608.07 434.69 608.07C435.34 608.07 435.87 608.6 435.87 609.25Z" fill="#0EB7FF"/>
</svg>
