<svg width="446" height="316" viewBox="0 0 446 316" fill="none" xmlns="http://www.w3.org/2000/svg">
<g clip-path="url(#clip0)">
<path d="M0.69 229.02H0V26.4598L0.1 26.3598L18.18 8.27979H157.5V8.96979H18.46L0.69 26.7398V229.02Z" fill="white"/>
<path d="M4.22003 229.02H3.53003V27.9198L3.64003 27.8198L19.64 11.8198H144.78V12.5098H19.92L4.22003 28.2098V229.02Z" fill="white"/>
<path d="M2.46002 229.02H1.77002V27.1898L1.87002 27.0898L18.91 10.0498H151.61V10.7398H19.19L2.46002 27.4698V229.02Z" fill="white"/>
<path d="M445.05 229.02H444.37V26.7398L426.59 8.96979H287.55V8.27979H426.88L426.98 8.37979L445.05 26.4598V229.02Z" fill="white"/>
<path d="M441.52 229.02H440.83V28.2098L425.13 12.5098H300.28V11.8198H425.42L425.52 11.9198L441.52 27.9198V229.02Z" fill="white"/>
<path d="M443.29 229.02H442.6V27.4698L425.86 10.7398H293.45V10.0498H426.15L426.25 10.1498L443.29 27.1898V229.02Z" fill="white"/>
<path d="M272.09 8.96999H172.97C172.97 7.01999 174.55 5.43999 176.51 5.43999H268.56C270.51 5.42999 272.09 7.00999 272.09 8.96999Z" fill="white"/>
<path d="M251.98 3.53H193.07C193.07 1.58 194.01 0 195.17 0H249.87C251.04 0 251.98 1.58 251.98 3.53Z" fill="white"/>
<path d="M157.5 315.96H18.18L18.07 315.86L0 297.79V229.02H0.69V297.5L18.46 315.28H157.5V315.96Z" fill="white"/>
<path d="M144.78 312.43H19.64L19.54 312.33L3.53003 296.33V229.02H4.22003V296.04L19.92 311.74H144.78V312.43Z" fill="white"/>
<path d="M151.61 314.2H18.91L18.81 314.1L1.77002 297.06V229.02H2.46002V296.77L19.19 313.51H151.61V314.2Z" fill="white"/>
<path d="M426.88 315.96H287.55V315.28H426.59L444.37 297.5V229.02H445.05V297.79L444.95 297.89L426.88 315.96Z" fill="white"/>
<path d="M425.42 312.43H300.28V311.74H425.13L440.83 296.04V229.02H441.52V296.33L441.42 296.43L425.42 312.43Z" fill="white"/>
<path d="M426.15 314.2H293.45V313.51H425.86L442.6 296.77V229.02H443.29V297.06L443.19 297.16L426.15 314.2Z" fill="white"/>
<path d="M272.09 312.09H172.97C172.97 314.04 174.55 315.62 176.51 315.62H268.56C270.51 315.62 272.09 314.04 272.09 312.09Z" fill="white"/>
<path d="M161.38 315.33L153.46 307.41H20.0801V306.03H154.03L162.36 314.36L161.38 315.33Z" fill="white"/>
<path d="M282.82 315.33L281.84 314.36L290.17 306.03H424.12V307.41H290.74L282.82 315.33Z" fill="white"/>
<path d="M155.37 304.67L154.64 303.94L170.24 288.35H213.11V289.38H170.67L155.37 304.67Z" fill="white"/>
<path d="M287.19 304.67L271.9 289.38H229.45V288.35H272.32L272.48 288.5L287.92 303.94L287.19 304.67Z" fill="white"/>
<path d="M221.12 291.96C222.595 291.96 223.79 290.765 223.79 289.29C223.79 287.816 222.595 286.62 221.12 286.62C219.645 286.62 218.45 287.816 218.45 289.29C218.45 290.765 219.645 291.96 221.12 291.96Z" fill="white"/>
<path d="M177.51 310.59H163.55L157.91 304.96L164.9 297.97L177.51 310.59Z" fill="white"/>
<path d="M193.92 310.59H179.96L166.12 296.76L171.91 290.96H174.28L193.92 310.59Z" fill="white"/>
<path opacity="0.68" d="M210.32 310.59H196.37L176.72 290.96H190.69L210.32 310.59Z" fill="white"/>
<path opacity="0.68" d="M213.11 296.98V310.59H212.77L193.13 290.96H207.09L213.11 296.98Z" fill="white"/>
<path d="M265.06 310.59H279.02L284.65 304.96L277.67 297.97L265.06 310.59Z" fill="white"/>
<path d="M248.65 310.59H262.6L276.44 296.76L270.65 290.96H268.28L248.65 310.59Z" fill="white"/>
<path d="M232.25 310.59H246.19L265.84 290.96H251.87L232.25 310.59Z" fill="white"/>
<path opacity="0.68" d="M229.45 296.98V310.59H229.79L249.43 290.96H235.47L229.45 296.98Z" fill="white"/>
<path opacity="0.68" d="M228.5 296.9H214.03V310.59H228.5V296.9Z" fill="white"/>
<path d="M54.8201 304.28H20.0801V307.47H54.8201V304.28Z" fill="white"/>
<path d="M424.62 304.28H389.88V307.47H424.62V304.28Z" fill="white"/>
<path d="M437.36 31.6699H436.67V291.97H437.36V31.6699Z" fill="white"/>
<path d="M437.38 49.5801H435.49V75.0701H437.38V49.5801Z" fill="white"/>
<path d="M434.37 49.5801H432.88V60.1401H434.37V49.5801Z" fill="white"/>
<path d="M435.87 290.76C435.87 291.41 435.34 291.94 434.69 291.94C434.04 291.94 433.51 291.41 433.51 290.76C433.51 290.11 434.04 289.58 434.69 289.58C435.34 289.58 435.87 290.11 435.87 290.76Z" fill="white"/>
</g>
<defs>
<clipPath id="clip0">
<rect width="445.05" height="315.96" fill="white"/>
</clipPath>
</defs>
</svg>
