<svg width="184" height="21" viewBox="0 0 184 21" fill="none" xmlns="http://www.w3.org/2000/svg">
<path fill-rule="evenodd" clip-rule="evenodd" d="M103.18 19H105.286V0.0200195H103.076V7.87202C102.192 6.52002 100.84 5.79202 98.942 5.79202C95.068 5.79202 93.248 8.34002 93.248 12.552C93.248 16.738 95.094 19.26 98.942 19.26C100.918 19.26 102.322 18.454 103.18 17.024V19ZM99.306 17.518C96.888 17.518 95.562 15.984 95.562 13.332V11.72C95.562 8.99002 96.888 7.53402 99.306 7.53402C101.672 7.53402 102.998 8.93802 103.076 11.512V13.306C103.076 15.88 101.75 17.518 99.306 17.518ZM108.611 15.516C108.611 17.7 110.041 19.26 113.031 19.26C114.877 19.26 116.385 18.584 117.347 17.232V19H119.427V10.654C119.427 7.27402 117.555 5.79202 114.279 5.79202C111.081 5.79202 109.287 7.27402 109.053 9.95202H111.263C111.445 8.21002 112.563 7.53402 114.279 7.53402C116.203 7.53402 117.217 8.26202 117.217 10.628V11.2L113.525 11.564C110.041 11.902 108.611 13.02 108.611 15.516ZM113.421 17.622C111.757 17.622 110.821 16.972 110.821 15.75V15.178C110.821 13.748 111.731 13.254 113.629 13.046L117.217 12.682V13.982C117.217 16.478 115.501 17.622 113.421 17.622ZM137.914 19L144.024 1.06002H141.814L136.328 17.128L130.53 1.06002H128.19L134.69 19H137.914ZM148.873 19V6.05202H146.663V19H148.873ZM149.341 1.55402C149.341 0.566019 148.795 0.0200195 147.729 0.0200195C146.689 0.0200195 146.195 0.566019 146.195 1.55402C146.195 2.59402 146.689 3.11402 147.729 3.11402C148.795 3.11402 149.341 2.59402 149.341 1.55402ZM161.618 19H163.828V10.758C163.828 7.30002 162.268 5.68802 159.252 5.68802C157.302 5.68802 155.768 6.39002 155.014 7.97602V6.05202H152.934V19H155.144V10.758C155.144 8.36602 156.444 7.35202 158.42 7.35202C160.344 7.35202 161.618 8.28802 161.618 10.758V19ZM178.058 15.1H175.848C175.588 16.946 174.418 17.518 172.676 17.518C170.492 17.518 169.296 16.14 169.296 13.332V11.72C169.296 9.01602 170.388 7.53402 172.676 7.53402C174.366 7.53402 175.536 8.15802 175.77 10.056H177.98C177.668 6.85802 175.64 5.79202 172.676 5.79202C168.776 5.79202 166.982 8.18402 166.982 12.552C166.982 17.024 168.854 19.26 172.676 19.26C175.614 19.26 177.616 18.09 178.058 15.1ZM183.379 19V6.05202H181.169V19H183.379ZM183.847 1.55402C183.847 0.566019 183.301 0.0200195 182.235 0.0200195C181.195 0.0200195 180.701 0.566019 180.701 1.55402C180.701 2.59402 181.195 3.11402 182.235 3.11402C183.301 3.11402 183.847 2.59402 183.847 1.55402ZM7.14292 21C2.20507 21 0 17.039 0 13.1112C0 10.4282 0.906724 7.33869 2.42619 4.8432C3.88413 2.43339 5.65201 1.00002 7.14292 1.00002C8.62962 1.00002 10.3967 2.43339 11.8674 4.8432C13.3797 7.33869 14.2858 10.4282 14.2858 13.1112C14.2858 17.039 12.0763 21 7.14292 21ZM50.7137 6.89273H45.7137V2.07143H61.0709V6.89273H56.0709V19.9285H50.7137V6.89273ZM72.499 6.89294H80.3567V2.07143H72.4997C65.2801 2.07143 61.4258 5.66074 61.4258 11.0001C61.4258 16.3394 65.2801 19.9287 72.4997 19.9287H80.3567V15.1072H72.499C69.1586 15.1072 66.9615 13.913 66.9615 11.0001C66.9615 8.08714 69.1586 6.89294 72.499 6.89294ZM31.9632 12.7302L34.8192 2.07143H44.2861V19.9287H38.9287V5.39447L35.0345 19.9287H28.8919L25.0003 5.40371L25 19.9287H19.6431V2.07143H29.1072L31.9632 12.7302Z" fill="#E30611"/>
</svg>
