<?xml version="1.0" encoding="UTF-8" standalone="no"?>
<svg
   width="380"
   height="179"
   viewBox="0 0 380 179"
   fill="none"
   version="1.1"
   id="svg159"
   sodipodi:docname="order_darkfont.svg"
   inkscape:version="1.1.1 (3bf5ae0d25, 2021-09-20)"
   xmlns:inkscape="http://www.inkscape.org/namespaces/inkscape"
   xmlns:sodipodi="http://sodipodi.sourceforge.net/DTD/sodipodi-0.dtd"
   xmlns="http://www.w3.org/2000/svg"
   xmlns:svg="http://www.w3.org/2000/svg">
  <defs
     id="defs163" />
  <sodipodi:namedview
     id="namedview161"
     pagecolor="#ffffff"
     bordercolor="#666666"
     borderopacity="1.0"
     inkscape:pageshadow="2"
     inkscape:pageopacity="0.0"
     inkscape:pagecheckerboard="0"
     showgrid="false"
     inkscape:zoom="3.1763981"
     inkscape:cx="212.66226"
     inkscape:cy="104.99314"
     inkscape:window-width="1920"
     inkscape:window-height="1017"
     inkscape:window-x="-8"
     inkscape:window-y="-8"
     inkscape:window-maximized="1"
     inkscape:current-layer="svg159" />
  <path
     d="M379.05 156.5H378.37V22.7398L360.59 4.96979H258V4.27979H360.88L360.98 4.37979L379.05 22.4598V156.5Z"
     fill="#0EB7FF"
     id="path87" />
  <path
     d="M375.52 159H374.83V24.2098L359.13 8.50982H270V7.81982L359.42 7.81982L359.52 7.91982L375.52 23.9198V159Z"
     fill="#0EB7FF"
     id="path89" />
  <path
     d="M377.29 157H376.6V23.4699L359.86 6.7399L263 6.7398V6.0498L360.15 6.0499L360.25 6.1499L377.29 23.1899V157Z"
     fill="#0EB7FF"
     id="path91" />
  <path
     d="M242.09 8.96999H142.97C142.97 7.01999 144.55 5.43999 146.51 5.43999H238.56C240.51 5.42999 242.09 7.00999 242.09 8.96999Z"
     fill="#0EB7FF"
     id="path93" />
  <path
     d="M221.98 3.53H163.07C163.07 1.58 164.01 0 165.17 0H219.87C221.04 0 221.98 1.58 221.98 3.53Z"
     fill="#0EB7FF"
     id="path95" />
  <path
     d="M360.88 178.96H258V178.28H360.59L378.37 160.5V92.02H379.05V160.79L378.95 160.89L360.88 178.96Z"
     fill="#0EB7FF"
     id="path97" />
  <path
     d="M359.42 175.43H270V174.74H359.13L374.83 159.04V92.02H375.52V159.33L375.42 159.43L359.42 175.43Z"
     fill="#0EB7FF"
     id="path99" />
  <path
     d="M360.15 177.2H263V176.51H359.86L376.6 159.77V92.02H377.29V160.06L377.19 160.16L360.15 177.2Z"
     fill="#0EB7FF"
     id="path101" />
  <path
     d="M0.549805 156.5H1.2298V22.7398L19.0098 4.96979H127V4.27979L18.7198 4.27979L18.6198 4.37979L0.549805 22.4598V156.5Z"
     fill="#0EB7FF"
     id="path103" />
  <path
     d="M4.07996 159H4.76997V24.2098L20.4699 8.50982H115V7.81982H20.1799L20.08 7.91982L4.07996 23.9198V159Z"
     fill="#0EB7FF"
     id="path105" />
  <path
     d="M2.30988 157H2.99989V23.4698L19.7399 6.7398H120V6.0498L19.4499 6.0498L19.3499 6.1498L2.30988 23.1898V157Z"
     fill="#0EB7FF"
     id="path107" />
  <path
     d="M18.7198 178.96H127V178.28H19.0098L1.22984 160.5V92.02H0.54985V160.79L0.649826 160.89L18.7198 178.96Z"
     fill="#0EB7FF"
     id="path109" />
  <path
     d="M20.1797 175.43H115V174.74H20.4697L4.7697 159.04V92.02H4.0797V159.33L4.17967 159.43L20.1797 175.43Z"
     fill="#0EB7FF"
     id="path111" />
  <path
     d="M19.4501 177.2H120V176.51H19.7401L3.0001 159.77V92.02H2.3101V160.06L2.4101 160.16L19.4501 177.2Z"
     fill="#0EB7FF"
     id="path113" />
  <path
     d="M242.09 175.09H142.97C142.97 177.04 144.55 178.62 146.51 178.62H238.56C240.51 178.62 242.09 177.04 242.09 175.09Z"
     fill="#0EB7FF"
     id="path115" />
  <path
     d="M131.38 178.33L123.46 170.41L20 170.41V169.03L124.03 169.03L132.36 177.36L131.38 178.33Z"
     fill="#0EB7FF"
     id="path117" />
  <path
     d="M252.82 178.33L251.84 177.36L260.17 169.03L358.5 169.03V170.41L260.74 170.41L252.82 178.33Z"
     fill="#0EB7FF"
     id="path119" />
  <path
     d="M125.37 167.67L124.64 166.94L140.24 151.35H183.11V152.38H140.67L125.37 167.67Z"
     fill="#0EB7FF"
     id="path121" />
  <path
     d="M257.19 167.67L241.9 152.38H199.45V151.35H242.32L242.48 151.5L257.92 166.94L257.19 167.67Z"
     fill="#0EB7FF"
     id="path123" />
  <path
     d="M191.12 154.96C192.595 154.96 193.79 153.765 193.79 152.29C193.79 150.816 192.595 149.62 191.12 149.62C189.646 149.62 188.45 150.816 188.45 152.29C188.45 153.765 189.646 154.96 191.12 154.96Z"
     fill="#0EB7FF"
     id="path125" />
  <path
     d="M147.51 173.59H133.55L127.91 167.96L134.9 160.97L147.51 173.59Z"
     fill="#0EB7FF"
     id="path127" />
  <path
     d="M163.92 173.59H149.96L136.12 159.76L141.91 153.96H144.28L163.92 173.59Z"
     fill="#0EB7FF"
     id="path129" />
  <path
     opacity="0.68"
     d="M180.32 173.59H166.37L146.72 153.96H160.69L180.32 173.59Z"
     fill="#0EB7FF"
     id="path131" />
  <path
     opacity="0.68"
     d="M183.11 159.98V173.59H182.77L163.13 153.96H177.09L183.11 159.98Z"
     fill="#0EB7FF"
     id="path133" />
  <path
     d="M235.06 173.59H249.02L254.65 167.96L247.67 160.97L235.06 173.59Z"
     fill="#0EB7FF"
     id="path135" />
  <path
     d="M218.65 173.59H232.6L246.44 159.76L240.65 153.96H238.28L218.65 173.59Z"
     fill="#0EB7FF"
     id="path137" />
  <path
     d="M202.25 173.59H216.19L235.84 153.96H221.87L202.25 173.59Z"
     fill="#0EB7FF"
     id="path139" />
  <path
     opacity="0.68"
     d="M199.45 159.98V173.59H199.79L219.43 153.96H205.47L199.45 159.98Z"
     fill="#0EB7FF"
     id="path141" />
  <path
     opacity="0.68"
     d="M198.5 159.9H184.03V173.59H198.5V159.9Z"
     fill="#0EB7FF"
     id="path143" />
  <path
     d="M54.8201 167.28H20.0801V170.47H54.8201V167.28Z"
     fill="#0EB7FF"
     id="path145" />
  <path
     d="M358.62 167.28H323.88V170.47H358.62V167.28Z"
     fill="#0EB7FF"
     id="path147" />
  <path
     d="M367.38 26.5801H365.49V52.0701H367.38V26.5801Z"
     fill="#0EB7FF"
     id="path149" />
  <path
     d="M366.5 47H366V154H366.5V47Z"
     fill="#0EB7FF"
     id="path151" />
  <path
     d="M364.37 26.5801H362.88V37.1401H364.37V26.5801Z"
     fill="#0EB7FF"
     id="path153" />
  <path
     d="M367.36 154.18C367.36 154.83 366.83 155.36 366.18 155.36C365.53 155.36 365 154.83 365 154.18C365 153.53 365.53 153 366.18 153C366.83 153 367.36 153.53 367.36 154.18Z"
     fill="#0EB7FF"
     id="path155" />
  <path
     d="M95.7129 89.748C95.7129 96.7142 94.541 102.801 92.1973 108.01C89.8535 113.186 86.5332 117.141 82.2363 119.875C77.9395 122.609 72.9264 123.977 67.1973 123.977C61.5983 123.977 56.6341 122.609 52.3047 119.875C47.9753 117.108 44.6061 113.186 42.1973 108.107C39.821 102.997 38.6003 97.0885 38.5352 90.3828V85.2559C38.5352 78.4199 39.7233 72.3815 42.0996 67.1406C44.4759 61.8997 47.8288 57.8958 52.1582 55.1289C56.5202 52.3294 61.5007 50.9297 67.0996 50.9297C72.7962 50.9297 77.8092 52.3132 82.1387 55.0801C86.5007 57.8145 89.8535 61.8021 92.1973 67.043C94.541 72.2513 95.7129 78.3223 95.7129 85.2559V89.748ZM86.3867 85.1582C86.3867 76.7272 84.694 70.2656 81.3086 65.7734C77.9232 61.2487 73.1868 58.9863 67.0996 58.9863C61.1751 58.9863 56.5039 61.2487 53.0859 65.7734C49.7005 70.2656 47.959 76.5156 47.8613 84.5234V89.748C47.8613 97.9186 49.5703 104.348 52.9883 109.035C56.4388 113.69 61.1751 116.018 67.1973 116.018C73.252 116.018 77.9395 113.82 81.2598 109.426C84.5801 104.999 86.2891 98.6673 86.3867 90.4316V85.1582ZM135.85 94.2402H119.15V123H109.727V51.9062H133.262C141.27 51.9062 147.422 53.7292 151.719 57.375C156.048 61.0208 158.213 66.3268 158.213 73.293C158.213 77.7201 157.008 81.5775 154.6 84.8652C152.223 88.153 148.903 90.6107 144.639 92.2383L161.338 122.414V123H151.279L135.85 94.2402ZM119.15 86.5742H133.555C138.21 86.5742 141.904 85.3698 144.639 82.9609C147.406 80.5521 148.789 77.3294 148.789 73.293C148.789 68.8984 147.471 65.5293 144.834 63.1855C142.23 60.8418 138.454 59.6536 133.506 59.6211H119.15V86.5742ZM171.396 123V51.9062H191.465C197.65 51.9062 203.118 53.2734 207.871 56.0078C212.624 58.7422 216.286 62.6322 218.857 67.6777C221.462 72.7233 222.78 78.5176 222.812 85.0605V89.6016C222.812 96.3073 221.51 102.183 218.906 107.229C216.335 112.274 212.64 116.148 207.822 118.85C203.037 121.551 197.454 122.935 191.074 123H171.396ZM180.771 59.6211V115.334H190.635C197.861 115.334 203.477 113.088 207.48 108.596C211.517 104.104 213.535 97.707 213.535 89.4062V85.2559C213.535 77.1829 211.631 70.9167 207.822 66.457C204.046 61.9648 198.675 59.6862 191.709 59.6211H180.771ZM277.207 90.1387H246.396V115.334H282.188V123H237.021V51.9062H281.699V59.6211H246.396V82.4727H277.207V90.1387ZM319.932 94.2402H303.232V123H293.809V51.9062H317.344C325.352 51.9062 331.504 53.7292 335.801 57.375C340.13 61.0208 342.295 66.3268 342.295 73.293C342.295 77.7201 341.09 81.5775 338.682 84.8652C336.305 88.153 332.985 90.6107 328.721 92.2383L345.42 122.414V123H335.361L319.932 94.2402ZM303.232 86.5742H317.637C322.292 86.5742 325.986 85.3698 328.721 82.9609C331.488 80.5521 332.871 77.3294 332.871 73.293C332.871 68.8984 331.553 65.5293 328.916 63.1855C326.312 60.8418 322.536 59.6536 317.588 59.6211H303.232V86.5742Z"
     fill="#D0D1D1"
     id="path157" />
  <path
     style="fill:#333333;stroke-width:0.314822"
     d="M 61.075468,123.20376 C 49.602121,120.75703 41.775414,111.70882 39.332209,98.067053 c -0.801971,-4.477849 -0.801971,-16.615226 0,-21.093074 1.154806,-6.44792 3.746087,-12.478672 7.054281,-16.417605 5.855363,-6.971746 14.989661,-10.446858 24.291235,-9.241517 12.850055,1.665171 21.116128,10.116469 24.118082,24.658516 0.652591,3.161276 0.937489,14.911564 0.469837,19.37789 -1.624765,15.517397 -9.96916,25.764587 -22.835699,28.042987 -2.640509,0.46758 -8.74917,0.3651 -11.354477,-0.19049 z m 10.36156,-7.5064 c 3.460407,-0.73308 5.940918,-2.06779 8.333445,-4.48405 3.330625,-3.36365 5.23981,-7.66044 6.190959,-13.933312 0.622196,-4.103403 0.61323,-15.865374 -0.01505,-19.739173 C 84.074345,65.998335 78.048769,59.532821 68.630492,58.960678 57.149856,58.26325 49.740478,65.653161 48.044526,79.492555 c -0.44247,3.610668 -0.447611,12.065257 -0.0096,15.7411 1.143776,9.598075 4.970892,16.194005 11.150376,19.217345 3.315689,1.62221 8.154134,2.11443 12.251697,1.24636 z"
     id="path602" />
  <path
     style="fill:#333333;stroke-width:0.314822"
     d="M 110.03029,87.363105 V 51.94563 l 11.72712,0.0027 c 12.75039,0.0029 17.33186,0.274509 21.1638,1.254554 7.09205,1.813842 12.02726,6.269663 14.1243,12.752332 1.16406,3.598503 1.24716,9.469402 0.18715,13.222524 -0.58898,2.085387 -2.43004,5.307839 -4.10818,7.190676 -1.65338,1.855048 -5.62008,4.669944 -7.41607,5.262672 -0.57624,0.190174 -1.0477,0.488348 -1.0477,0.662609 0,0.260597 13.32652,24.583823 15.97047,29.148903 l 0.77492,1.33799 h -5.03358 -5.03359 l -7.66791,-14.32098 -7.66792,-14.32099 -8.42148,-0.0034 -8.42149,-0.0034 v 14.3244 14.3244 h -4.56492 -4.56492 z m 29.03744,-1.371179 c 7.02377,-1.947634 10.57345,-7.489122 9.6423,-15.052838 -0.55279,-4.490381 -2.7387,-7.766836 -6.3719,-9.550847 -3.2702,-1.605772 -5.38445,-1.875333 -14.75651,-1.881416 l -8.42149,-0.0055 V 73.038704 86.57605 h 8.90053 c 7.70256,0 9.18407,-0.07862 11.00707,-0.584124 z"
     id="path641" />
  <path
     style="fill:#333333;stroke-width:0.314822"
     d="M 171.42058,87.363105 V 51.94563 l 10.31042,0.0055 c 14.90077,0.0079 18.53134,0.521477 24.47741,3.46266 9.1389,4.520496 14.8746,13.474875 16.19051,25.276104 0.42757,3.834417 0.43172,9.310248 0.0102,13.418033 -1.40106,13.653133 -8.74618,23.375043 -20.45078,27.068443 -4.39534,1.38695 -6.98081,1.60425 -19.08797,1.60425 h -11.44976 z m 26.22482,27.281815 c 7.5858,-2.04405 12.73499,-7.46753 14.92531,-15.720345 0.7249,-2.731314 0.82821,-3.816641 0.95846,-10.069283 0.15579,-7.478986 -0.23062,-11.350039 -1.50178,-15.044721 -1.84118,-5.351479 -5.50409,-9.823251 -9.75426,-11.908236 -4.08016,-2.001588 -4.9794,-2.152806 -13.77346,-2.316161 l -7.94925,-0.147662 v 28.08718 28.087178 l 7.31961,-0.15312 c 6.11783,-0.12797 7.72281,-0.26176 9.77537,-0.81483 z"
     id="path680" />
  <path
     style="fill:#333333;stroke-width:0.314822"
     d="M 237.21838,87.363105 V 51.94563 h 22.19495 22.19495 v 3.777864 3.777864 h -17.63003 -17.63004 v 11.491003 11.491003 h 15.42628 15.42628 v 3.777864 3.777864 h -15.42628 -15.42628 v 12.750288 12.75029 h 17.78745 17.78744 v 3.62046 3.62045 h -22.35236 -22.35236 z"
     id="path719" />
  <path
     style="fill:#333333;stroke-width:0.314822"
     d="M 293.88634,87.363105 V 51.94563 l 12.04194,0.0106 c 17.12641,0.01508 20.14102,0.370852 25.6928,3.03217 6.91849,3.316468 10.43302,9.428603 10.43302,18.144081 0,8.1846 -3.81924,14.217717 -11.43001,18.055593 l -2.14277,1.080529 0.61,1.010292 c 1.03672,1.717061 15.78259,28.470315 15.98956,29.009665 0.17533,0.45691 -0.30767,0.49959 -4.77014,0.4215 l -4.96523,-0.0869 -7.60387,-14.16699 -7.60387,-14.166993 -8.5608,-0.08376 -8.5608,-0.08376 v 14.329463 14.32946 h -4.56491 -4.56492 z m 28.39719,-1.142889 c 4.24503,-0.905422 7.92364,-3.704959 9.58,-7.290688 0.83573,-1.809211 0.90332,-2.238256 0.90332,-5.733413 0,-2.937648 -0.13316,-4.136562 -0.59874,-5.390677 -1.31568,-3.543984 -4.09395,-6.1051 -8.05886,-7.428965 -1.87968,-0.627615 -2.82199,-0.693058 -11.56971,-0.803506 l -9.52337,-0.120241 V 73.014388 86.57605 h 8.79952 c 5.34858,0 9.45379,-0.139548 10.46784,-0.355834 z"
     id="path758" />
</svg>
