<svg width="56" height="56" viewBox="0 0 56 56" fill="none" xmlns="http://www.w3.org/2000/svg">
<circle cx="28" cy="28" r="28" fill="#363636"/>
<path d="M32.9755 19.9911C32.6228 19.6696 32.0589 19.6696 31.7062 19.9911C31.7062 19.9911 31.7062 19.9911 31.7062 19.9911L23.0247 27.8901L23.0245 27.8902C22.6585 28.2239 22.6585 28.7761 23.0245 29.1098L23.0247 29.1099L31.7062 37.0089C31.8839 37.1709 32.1059 37.25 32.3408 37.25C32.5757 37.25 32.7978 37.1709 32.9755 37.0089C33.3415 36.6753 33.3415 36.123 32.9755 35.7894L24.9788 28.5L32.9755 21.2106C33.3415 20.877 33.3415 20.3247 32.9755 19.9911Z" fill="white" stroke="white" stroke-width="0.5"/>
</svg>
